<?xml version="1.0" encoding="UTF-8" standalone="no"?>
<!-- Generator: Adobe Illustrator 26.5.0, SVG Export Plug-In . SVG Version: 6.00 Build 0)  -->

<svg
   version="1.1"
   id="Layer_1"
   x="0px"
   y="0px"
   viewBox="0 0 2524.7244 2910.2362"
   xml:space="preserve"
   sodipodi:docname="lobstr.svg"
   width="668mm"
   height="770mm"
   inkscape:export-filename="..\..\..\areafoliar.svg"
   inkscape:export-xdpi="96"
   inkscape:export-ydpi="96"
   xmlns:inkscape="http://www.inkscape.org/namespaces/inkscape"
   xmlns:sodipodi="http://sodipodi.sourceforge.net/DTD/sodipodi-0.dtd"
   xmlns="http://www.w3.org/2000/svg"
   xmlns:svg="http://www.w3.org/2000/svg"><defs
   id="defs266"><linearGradient
     id="linearGradient3523"
     inkscape:swatch="solid"><stop
       style="stop-color:#ffffff;stop-opacity:1;"
       offset="0"
       id="stop3521" /></linearGradient></defs><sodipodi:namedview
   id="namedview264"
   pagecolor="#ffffff"
   bordercolor="#000000"
   borderopacity="0.25"
   inkscape:showpageshadow="2"
   inkscape:pageopacity="0.0"
   inkscape:pagecheckerboard="0"
   inkscape:deskcolor="#d1d1d1"
   showgrid="false"
   inkscape:document-units="mm"><sodipodi:guide
     position="0,2910.2362"
     orientation="0,2524.7244"
     id="guide2290"
     inkscape:locked="false" /><sodipodi:guide
     position="2524.7244,2910.2362"
     orientation="2910.2362,0"
     id="guide2292"
     inkscape:locked="false" /><sodipodi:guide
     position="2524.7244,0"
     orientation="0,-2524.7244"
     id="guide2294"
     inkscape:locked="false" /><sodipodi:guide
     position="0,0"
     orientation="-2910.2362,0"
     id="guide2296"
     inkscape:locked="false" /></sodipodi:namedview>
<style
   type="text/css"
   id="style2">
	.st0{fill:#54346F;}
	.st1{opacity:0.25;fill:url(#SVGID_1_);enable-background:new    ;}
	.st2{fill:#FFFFFF;}
	.st3{fill:#E6B35A;}
	.st4{fill:none;}
	.st5{fill:#ADA2BA;}
	.st6{opacity:0.2;}
	.st7{fill:#42285B;}
</style>
<g
   id="g261"
   transform="scale(1.0014774,0.99970328)"
   style="display:none;fill:#c3dec4;fill-opacity:0.714697;stroke:#1de617;stroke-width:1.00098;stroke-dasharray:none;stroke-opacity:1">
	<polygon
   class="st0"
   points="100.5,789.1 100.5,2128.8 1260.2,2798.5 2419.8,2128.8 2419.8,789.1 1260.2,119.4 "
   id="polygon4"
   style="fill:#c3dec4;fill-opacity:0.714697;stroke:#1de617;stroke-width:1.00098;stroke-dasharray:none;stroke-opacity:1" />
	
		<linearGradient
   id="SVGID_1_"
   gradientUnits="userSpaceOnUse"
   x1="1262.7965"
   y1="1270.9794"
   x2="1267.251"
   y2="-319.26431"
   gradientTransform="matrix(1,0,0,-1,0,852)">
		<stop
   offset="0"
   style="stop-color:#FFFFFF;stop-opacity:0.83"
   id="stop6" />
		<stop
   offset="1"
   style="stop-color:#FFFFFF;stop-opacity:0"
   id="stop8" />
	</linearGradient>
	
	
	
	
	
	
	
	
	
	
	
	
	
	
	
	<g
   id="g197"
   style="fill:#c3dec4;fill-opacity:0.714697;stroke:#1de617;stroke-width:1.00098;stroke-dasharray:none;stroke-opacity:1">
		
		
		
	</g>
	
	
	
	
	<polygon
   class="st4"
   points="1267,22 2497.3,732.5 2497.3,2180.6 1267,2895.6 9.3,2180.6 9.3,732.5 "
   id="polygon249"
   style="fill:#c3dec4;fill-opacity:0.714697;stroke:#1de617;stroke-width:1.00098;stroke-dasharray:none;stroke-opacity:1" />
	<g
   id="g257"
   style="fill:#c3dec4;fill-opacity:0.714697;stroke:#1de617;stroke-width:1.00098;stroke-dasharray:none;stroke-opacity:1">
		
		
		
	</g>
	<path
   class="st7"
   d="M 2419.8,669.7 1467,119.4 1260.2,0 1053.4,119.4 100.5,669.7 0,727.7 v 1455.7 l 100.5,58 964.8,557.2 195.2,112.5 195.2,-112.5 964.8,-557.2 100.5,-58 V 727.7 Z m 0,1459.1 L 1260.1,2798.5 100.5,2128.8 V 789.1 L 1260.2,119.4 2419.9,789.1 v 1339.7 z"
   id="path259"
   inkscape:label="path259"
   style="fill:#c3dec4;fill-opacity:0.714697;stroke:#1de617;stroke-width:1.00098;stroke-dasharray:none;stroke-opacity:1" />
</g>
<path
   sodipodi:type="star"
   style="fill:#ffffff;fill-opacity:0;stroke:#2fe92c;stroke-width:94.4882;stroke-opacity:1"
   id="path2771"
   inkscape:flatsided="true"
   sodipodi:sides="6"
   sodipodi:cx="1170.7064"
   sodipodi:cy="960.47394"
   sodipodi:r1="887.23236"
   sodipodi:r2="768.36572"
   sodipodi:arg1="0.53643546"
   sodipodi:arg2="1.0600342"
   inkscape:rounded="0"
   inkscape:randomized="0"
   d="M 1933.3145,1413.9166 1159.3176,1847.6332 396.70956,1394.1906 408.09837,507.03131 1182.0952,73.314675 1944.7033,526.7573 Z"
   transform="matrix(1.5447287,-0.0166523,0.02474116,1.5449761,-570.13015,-8.9424584)" /><path
   sodipodi:type="star"
   style="fill:#c3dec4;fill-opacity:0.714697;stroke:#197c16;stroke-width:36.6948;stroke-dasharray:none;stroke-opacity:1"
   id="path2771-9"
   inkscape:flatsided="true"
   sodipodi:sides="6"
   sodipodi:cx="1170.7064"
   sodipodi:cy="960.47394"
   sodipodi:r1="887.23236"
   sodipodi:r2="768.36572"
   sodipodi:arg1="0.53643546"
   sodipodi:arg2="1.0600342"
   inkscape:rounded="0"
   inkscape:randomized="0"
   d="M 1933.3145,1413.9166 1159.3176,1847.6332 396.70956,1394.1906 408.09837,507.03131 1182.0952,73.314675 1944.7033,526.7573 Z"
   transform="matrix(1.5447287,-0.0166523,0.02474116,1.5449761,-569.20427,-3.1406233)" /><g
   id="g7586"
   transform="matrix(-0.24832456,0.01507879,0.02086355,0.34648894,1008.416,777.54405)"><path
     style="fill:#49d731;fill-opacity:1;stroke:#53a32b;stroke-width:8.60477;stroke-opacity:0.671512"
     d="m -974.75175,3702.0618 c 57.29976,-8.2136 1.37462,14.0087 0,0 z m 69.46635,-0.2157 c 79.07157,-7.8767 4.03192,12.9061 0,0 z m -202.4744,-210.5421 c -441.1913,-28.7358 -888.7754,-184.1568 -1217.2374,-489.3486 133.1031,-146.7438 345.1745,-225.7563 524.5307,-320.7219 476.2445,-216.653 999.09204,-350.9659 1524.20371,-344.901 205.787917,19.6262 339.444933,-172.1669 111.77155,-199.5571 -65.64412,28.492 -366.92342,-4.8527 -322.25682,1.6943 384.58467,-232.2761 778.02691,-573.2871 977.7366,-981.3487 -193.76298,-143.2805 -248.92295,24.0884 -311.86124,157.8499 -216.60508,510.9852 -981.2552,827.5959 -1551.9047,1003.5835 122.527,-259.25 142.295,-577.621 -30.7759,-819.8852 -158.6265,-121.2515 -207.1757,44.1742 -83.9173,161.6881 101.0398,280.5278 10.3107,600.1965 -224.2613,770.2735 -237.7041,101.9108 -554.9596,255.5891 -765.3884,405.7664 -252.7387,-316.5575 -305.5015,-760.9389 -171.6161,-1138.9069 134.1891,-444.4402 544.6399,-729.16549 965.9752,-868.95527 C -930.65627,569.40875 -116.17262,582.24363 638.52664,334.31731 758.02312,318.07262 939.94337,103.39603 945.62339,338.77192 1103.4283,904.70952 1138.1655,1514.2415 997.40532,2087.2108 864.31245,2645.0532 476.26961,3156.3542 -73.599654,3352.5667 -402.68038,3476.9349 -758.67994,3507.6891 -1107.7598,3491.304 Z M -2963.0744,2215.8041 c 8.9737,-31.3376 3.8862,35.2443 0,0 z M 1316.054,1152.5985 c 8.9729,-31.3374 3.8872,35.2442 0,0 z"
     id="path7578"
     sodipodi:nodetypes="cccccccccccccccccccccccccccc" /><path
     style="fill:#3bc143;fill-opacity:1;stroke-width:8.47812"
     d="m -3189.1669,3966.3034 c -36.4737,-8.298 -68.3409,-35.8278 -80.0905,-69.1892 -8.7512,-24.8475 -5.9851,-37.272 23.6063,-106.0331 50.3623,-117.0262 187.1283,-347.3515 269.1255,-453.2294 83.6723,-108.0408 195.7904,-229.6743 287.003,-311.3603 l 63.3547,-56.7379 -41.4863,-54.4494 c -127.5084,-167.3503 -220.3599,-391.6338 -251.7429,-608.087 -15.8512,-109.3281 -6.7309,-344.2484 17.8199,-459.003 148.2796,-693.0831 653.1185,-1090.00365 1664.7981,-1308.91786 178.9571,-38.72397 452.00672,-85.7818 845.67085,-145.74433 C 36.108592,328.47865 197.7931,297.50744 390.21808,243.88647 597.31786,186.17622 738.03762,121.03223 845.86148,32.953525 c 80.43891,-65.70864 132.29588,-74.278316 186.89982,-30.8865446 19.422,15.4339396 35.9018,46.1528876 63.4653,118.3017896 193.6483,506.88294 264.9616,1165.38553 185.4257,1712.20613 -85.3077,586.501 -333.17683,1058.5047 -722.76788,1376.327 -293.68293,239.582 -642.021582,379.937 -1089.74112,439.0859 -177.32244,23.4264 -569.9806,25.6559 -733.4987,4.1647 -469.2798,-61.6772 -857.1846,-220.2865 -1152.6056,-471.2859 l -72.5366,-61.6294 -54.0691,50.66 c -211.4037,198.0751 -379.1776,436.5433 -499.0976,709.4005 -33.0921,75.2953 -78.7614,102.4175 -146.5026,87.0057 z M -533.58544,3452.6209 C -46.303557,3379.5165 320.82131,3194.7548 593.94753,2885.1714 1005.6432,2418.522 1171.9605,1679.9836 1051.1104,855.12246 1021.9781,656.28103 971.79955,438.59416 922.75519,298.28635 l -18.34103,-52.47058 -61.76649,33.87732 C 593.54603,416.31895 309.11408,484.80949 -556.56567,616.62036 -1213.7074,716.67851 -1535.4801,793.59884 -1838.86,923.15485 c -528.189,225.55885 -807.453,585.61935 -859.5556,1108.24165 -19.3876,194.4697 16.6453,396.1935 103.1869,577.6744 35.8399,75.1577 108.8614,195.6587 129.8659,214.3069 8.213,7.2915 30.5121,-4.044 97.9584,-49.7962 164.472,-111.5693 324.3267,-200.3283 523.9483,-290.9209 94.6089,-42.9354 110.296,-53.1735 149.3935,-97.4999 95.8285,-108.6448 166.6496,-239.6407 196.994,-364.3739 10.286,-42.2815 12.9154,-85.9382 9.6546,-160.3022 -4.8355,-110.2798 -17.7564,-161.3073 -63.0984,-249.1902 -35.5398,-68.8845 -32.8293,-107.841 9.7564,-140.2129 58.9202,-44.7887 131.8141,-35.7163 174.6444,21.7362 33.4407,44.8573 78.882,161.9199 96.8177,249.4146 32.8848,160.4195 3.4689,355.2462 -78.0686,517.0645 -10.6668,21.1691 -13.5517,34.6356 -7.4199,34.6356 20.0279,0 263.7115,-89.7011 394.75173,-145.3101 306.09094,-129.8944 549.63075,-275.7918 762.19095,-456.6054 173.368067,-147.4751 308.73878,-303.2032 424.39059,-488.2114 48.91542,-78.2499 63.72745,-95.5591 92.72893,-108.3625 44.03847,-19.4415 91.3961,-12.9906 127.00308,17.3 53.97805,45.9186 48.12356,81.2628 -34.43565,207.8891 -196.6891,301.6746 -475.822723,566.7375 -804.41772,763.8683 l -81.89392,49.1298 158.87705,4.1747 c 140.21714,3.6845 163.90467,6.2506 201.68473,21.8496 76.580299,31.6191 92.179128,98.3286 35.593355,152.2179 -24.196825,23.0437 -30.651955,25.0024 -79.938055,24.2577 -359.17893,-5.4279 -435.71952,-0.552 -693.94798,44.2038 -449.95819,77.9867 -914.82369,249.2339 -1262.50749,465.0824 -60.6234,37.6362 -131.7907,84.0959 -158.1495,103.2438 -46.9469,34.1036 -47.6258,35.2031 -33.2599,53.8547 26.5965,34.5307 189.7171,151.8212 292.6027,210.3937 226.8093,129.1219 499.9753,213.9532 804.3066,249.7763 140.7336,16.566 537.5101,10.6555 675.61746,-10.064 z"
     id="path7570" /></g><text
   xml:space="preserve"
   style="font-size:208.433px;font-family:'High Tower Text';-inkscape-font-specification:'High Tower Text';text-align:center;text-anchor:middle;fill:#ffffff;fill-opacity:0.259366;stroke:#2fe92c;stroke-width:4.10302;stroke-dasharray:none;stroke-opacity:1"
   x="1304.8301"
   y="2318.3457"
   id="text11449"
   transform="scale(1.0344464,0.96670065)"><tspan
     sodipodi:role="line"
     id="tspan11447"
     x="1304.8301"
     y="2318.3457"
     style="font-style:normal;font-variant:normal;font-weight:normal;font-stretch:normal;font-size:208.433px;font-family:'Microsoft JhengHei UI';-inkscape-font-specification:'Microsoft JhengHei UI';fill:#000000;fill-opacity:0.974063;stroke:#000000;stroke-width:4.10302;stroke-opacity:1">areafoliar</tspan></text><text
   xml:space="preserve"
   style="font-size:187.99px;font-family:'High Tower Text';-inkscape-font-specification:'High Tower Text';text-align:center;text-anchor:middle;fill:#0fd119;fill-opacity:0.259366;stroke:#18e315;stroke-width:3.7006;stroke-dasharray:none;stroke-opacity:1"
   x="2383.8333"
   y="780.01996"
   id="text11449-3"
   transform="scale(0.76783272,1.302367)"><tspan
     id="tspan11447-0"
     x="2383.8333"
     y="780.01996"
     style="font-style:normal;font-variant:normal;font-weight:normal;font-stretch:normal;font-size:187.99px;font-family:'Microsoft JhengHei UI';-inkscape-font-specification:'Microsoft JhengHei UI';fill:#0fd119;fill-opacity:0.259366;stroke:#18e315;stroke-width:3.7006;stroke-opacity:1"
     sodipodi:role="line">cm2</tspan></text></svg>
